<svg id="add" xmlns="http://www.w3.org/2000/svg" width="51.763" height="51.763" viewBox="0 0 51.763 51.763">
  <g id="Gruppe_528" data-name="Gruppe 528">
    <g id="Gruppe_527" data-name="Gruppe 527">
      <path id="Pfad_601" data-name="Pfad 601" d="M25.881,0A25.881,25.881,0,1,0,51.763,25.881,25.91,25.91,0,0,0,25.881,0Zm0,47.753A21.872,21.872,0,1,1,47.753,25.881,21.9,21.9,0,0,1,25.881,47.753Z" fill="#fff"/>
    </g>
  </g>
  <g id="Gruppe_530" data-name="Gruppe 530" transform="translate(13.853 13.672)">
    <g id="Gruppe_529" data-name="Gruppe 529">
      <path id="Pfad_602" data-name="Pfad 602" d="M159.074,145.262h-8.019v-8.019a2,2,0,1,0-4.01,0v8.019h-8.019a2,2,0,0,0,0,4.01h8.019v8.019a2,2,0,0,0,4.01,0v-8.019h8.019a2,2,0,1,0,0-4.01Z" transform="translate(-137.022 -135.238)" fill="#fff"/>
    </g>
  </g>
</svg>
