<svg xmlns="http://www.w3.org/2000/svg" xmlns:xlink="http://www.w3.org/1999/xlink" width="179.358" height="179.356" viewBox="0 0 179.358 179.356">
  <defs>
    <filter id="Pfad_431" x="0" y="0" width="179.358" height="179.356" filterUnits="userSpaceOnUse">
      <feOffset dy="3" input="SourceAlpha"/>
      <feGaussianBlur stdDeviation="8.5" result="blur"/>
      <feFlood flood-opacity="0.161"/>
      <feComposite operator="in" in2="blur"/>
      <feComposite in="SourceGraphic"/>
    </filter>
  </defs>
  <g id="Gruppe_1328" data-name="Gruppe 1328" transform="translate(-3565.321 7752.679)">
    <g id="Gruppe_1327" data-name="Gruppe 1327" transform="translate(-69 57)">
      <g transform="matrix(1, 0, 0, 1, 3634.32, -7809.68)" filter="url(#Pfad_431)">
        <path id="Pfad_431-2" data-name="Pfad 431" d="M754.377,781.553a64.179,64.179,0,1,1-64.18-64.179,64.178,64.178,0,0,1,64.18,64.179" transform="translate(-600.52 -694.87)" fill="#0040ee"/>
      </g>
      <path id="pencil" d="M58.979,8.833,52.517,2.374a8.094,8.094,0,0,0-11.452,0L2.989,40.2.04,58.076a2.879,2.879,0,0,0,3.31,3.31l17.875-2.949,37.83-38.076a8.1,8.1,0,0,0-.075-11.528Zm-44.5,27.4L34.9,15.938,45.487,26.525,25.194,46.951V41.99H19.435V36.231ZM9.854,54.963,6.463,51.572l1.456-8.828,2.207-2.193h4.99v5.759h5.759V51.3l-2.193,2.208ZM55.321,16.628l-.006.006-.006.006-5.762,5.8L38.985,11.879l5.8-5.762.006-.006L44.8,6.1a2.814,2.814,0,0,1,3.987,0l6.461,6.461a2.823,2.823,0,0,1,.075,4.062Z" transform="translate(3693.288 -7753.713)" fill="#fff"/>
    </g>
  </g>
</svg>
