<svg id="graph" xmlns="http://www.w3.org/2000/svg" width="57.262" height="51.546" viewBox="0 0 57.262 51.546">
  <g id="Gruppe_537" data-name="Gruppe 537" transform="translate(0 0)">
    <path id="Pfad_606" data-name="Pfad 606" d="M51.546,25.55a5.712,5.712,0,0,0-4.116,9.687L36.97,56.166a4.7,4.7,0,0,0-.694-.067,5.712,5.712,0,0,0-2.159.425L26,47.385A5.715,5.715,0,1,0,15.28,44.633a5.682,5.682,0,0,0,1.409,3.714L6.745,65.741a5.234,5.234,0,0,0-1.018-.1,5.807,5.807,0,1,0,4.318,2.014L19.978,50.26a5.385,5.385,0,0,0,3.166-.324l8.121,9.139a5.722,5.722,0,1,0,9.117-1.208L50.841,36.937a4.7,4.7,0,0,0,.694.067,5.727,5.727,0,0,0,.011-11.455Z" transform="translate(0 -25.55)" fill="#fff"/>
  </g>
</svg>
