<svg id="Gruppe_1052" data-name="Gruppe 1052" xmlns="http://www.w3.org/2000/svg" width="100.136" height="100.136" viewBox="0 0 100.136 100.136">
  <path id="Pfad_848" data-name="Pfad 848" d="M50.068,0A50.068,50.068,0,1,1,0,50.068,50.068,50.068,0,0,1,50.068,0Z" fill="#949494"/>
  <path id="Pfad_701" data-name="Pfad 701" d="M243.807,724.258a11.914,11.914,0,0,0-6.328,3.78c-.91,1.042-2.2,2.3-3.421,1.089-1.629-1.617.195-2.894,1.237-3.919,4.227-4.16,9.158-5.732,14.945-3.663,3.426,1.225,6.819,2.555,10.284,3.654,4.515,1.43,8.48.231,12.044-2.8,1.1-.932,2.488-2.98,3.939-1.269,1.679,1.98-.661,3.18-1.917,4.3-5.61,4.984-11.8,5.117-18.458,2.264C252.2,726.008,248.4,723.65,243.807,724.258Z" transform="translate(-204.356 -655.755)" fill="#242524"/>
  <ellipse id="Ellipse_155" data-name="Ellipse 155" cx="6.03" cy="6.03" rx="6.03" ry="6.03" transform="translate(52.906 31.241)" fill="#242524"/>
  <ellipse id="Ellipse_156" data-name="Ellipse 156" cx="6.03" cy="6.03" rx="6.03" ry="6.03" transform="translate(32.767 31.241)" fill="#242524"/>
</svg>
