<svg id="Gruppe_1050" data-name="Gruppe 1050" xmlns="http://www.w3.org/2000/svg" width="100.27" height="100.27" viewBox="0 0 100.27 100.27">
  <ellipse id="Ellipse_153" data-name="Ellipse 153" cx="50.135" cy="50.135" rx="50.135" ry="50.135" transform="translate(0)" fill="#ff827b"/>
  <ellipse id="Ellipse_157" data-name="Ellipse 157" cx="6.038" cy="6.038" rx="6.038" ry="6.038" transform="translate(54.18 31.283)" fill="#242524"/>
  <ellipse id="Ellipse_158" data-name="Ellipse 158" cx="6.038" cy="6.038" rx="6.038" ry="6.038" transform="translate(34.014 31.283)" fill="#242524"/>
  <path id="Pfad_702" data-name="Pfad 702" d="M150.143,700.022c-1.767-6.935,2.383-13.422,8.551-14.242,1.114-.148,1.9.064,2.358,1.046a1.742,1.742,0,0,1-.77,2.469C155.506,691.359,153.132,695.79,150.143,700.022Z" transform="translate(-97.346 -665.512)" fill="#242524"/>
  <path id="Pfad_703" data-name="Pfad 703" d="M148.4,700.353c-.807-5.075-4.664-7.538-8.585-9.893-1.351-.813-3.38-1.23-2.437-3.345.955-2.141,2.811-.889,4.2-.427,5.746,1.91,8.535,5.647,8.577,10.682a3.112,3.112,0,0,1-1.812,2.934Z" transform="translate(-100.917 -665.466)" fill="#242524"/>
  <ellipse id="Ellipse_161" data-name="Ellipse 161" cx="13.365" cy="17.121" rx="13.365" ry="17.121" transform="translate(36.233 51.727)" fill="#242524"/>
</svg>
