<svg id="smile" xmlns="http://www.w3.org/2000/svg" width="51.553" height="51.553" viewBox="0 0 51.553 51.553">
  <g id="Gruppe_502" data-name="Gruppe 502">
    <g id="Gruppe_501" data-name="Gruppe 501">
      <path id="Pfad_590" data-name="Pfad 590" d="M25.777,0A25.777,25.777,0,1,0,51.553,25.777,25.777,25.777,0,0,0,25.777,0Zm0,47.871A22.094,22.094,0,1,1,47.871,25.777,22.094,22.094,0,0,1,25.777,47.871Z" fill="#fff"/>
    </g>
  </g>
  <g id="Gruppe_504" data-name="Gruppe 504" transform="translate(12.888 18.412)">
    <g id="Gruppe_503" data-name="Gruppe 503">
      <ellipse id="Ellipse_131" data-name="Ellipse 131" cx="3.682" cy="3.682" rx="3.682" ry="3.682" fill="#fff"/>
    </g>
  </g>
  <g id="Gruppe_506" data-name="Gruppe 506" transform="translate(31.3 18.412)">
    <g id="Gruppe_505" data-name="Gruppe 505">
      <ellipse id="Ellipse_132" data-name="Ellipse 132" cx="3.682" cy="3.682" rx="3.682" ry="3.682" fill="#fff"/>
    </g>
  </g>
  <g id="Gruppe_508" data-name="Gruppe 508" transform="translate(18.36 31.259)">
    <g id="Gruppe_507" data-name="Gruppe 507">
      <path id="Pfad_591" data-name="Pfad 591" d="M184.656,290.49a1.841,1.841,0,0,0-2.577-.374q-.053.04-.1.083h0a7.411,7.411,0,0,1-8.742,0,1.841,1.841,0,0,0-2.408,2.786q.05.043.1.083a10.994,10.994,0,0,0,13.352,0A1.841,1.841,0,0,0,184.656,290.49Z" transform="translate(-170.189 -289.75)" fill="#fff"/>
    </g>
  </g>
</svg>
