<svg xmlns="http://www.w3.org/2000/svg" viewBox="0 0 24 24"><defs><style>.cls-1{fill:none;}.cls-2{fill:#dae3f7;stroke:#dae3f7;stroke-miterlimit:10;stroke-width:4px;}.cls-3{fill:#4168fd;}.cls-4{fill:#fff;}.cls-5{fill:#aac0f9;}</style></defs><g id="Ebene_2" data-name="Ebene 2"><g id="Dashboard_icons" data-name="Dashboard icons"><g id="survey"><rect class="cls-1" width="24" height="24"/><rect class="cls-2" x="9.89" y="3.3" width="11.33" height="11.33" rx="5"/><path class="cls-3" d="M13.1,10.4l3.78-3.77a.66.66,0,0,1,.85-.1.64.64,0,0,1,.08,1L14,11.31a.65.65,0,0,1-.91,0h0A.65.65,0,0,1,13.1,10.4Z"/><path class="cls-3" d="M14.21,6.6,18,10.38a.67.67,0,0,1,.09.85.64.64,0,0,1-1,.08l-3.8-3.8a.65.65,0,0,1,0-.91h0A.65.65,0,0,1,14.21,6.6Z"/><rect class="cls-4" x="3.2" y="5.69" width="11.33" height="11.33" rx="5"/><path class="cls-5" d="M12.9,17.66H4.84a2.29,2.29,0,0,1-2.29-2.28V7.32A2.3,2.3,0,0,1,4.84,5H12.9a2.29,2.29,0,0,1,2.28,2.29v8.06A2.28,2.28,0,0,1,12.9,17.66ZM4.84,6.34a1,1,0,0,0-1,1v8.06a1,1,0,0,0,1,1H12.9a1,1,0,0,0,1-1V7.32a1,1,0,0,0-1-1Z"/><path class="cls-3" d="M6.91,14.07l-1.8-1.79A.67.67,0,0,1,5,11.43a.64.64,0,0,1,1-.08l1.47,1.48L11.71,8.6a.66.66,0,0,1,.85-.1.65.65,0,0,1,.08,1L8,14.07A.79.79,0,0,1,6.91,14.07Z"/><path class="cls-3" d="M13,20.11l-.66-1a.91.91,0,0,1-.14-.66.93.93,0,0,1,.37-.56L15,16.27a.91.91,0,0,1,.49-.15.87.87,0,0,1,.72.39l2.46,3.6Z"/><path class="cls-4" d="M15.53,16.45a.54.54,0,0,1,.45.24l2.11,3.1H13.21L12.64,19a.55.55,0,0,1,.14-.76l2.44-1.65a.56.56,0,0,1,.31-.09m0-.65h0a1.22,1.22,0,0,0-.67.2l-2.43,1.65a1.19,1.19,0,0,0-.32,1.67l.57.83.19.29h6.46l-.69-1-2.11-3.1a1.19,1.19,0,0,0-1-.52Z"/><path class="cls-3" d="M11.77,17.72a.89.89,0,0,1-.88-.75l-.57-3.62a.88.88,0,0,1,.88-1,.87.87,0,0,1,.45.12l3.15,1.87a.89.89,0,0,1,0,1.51l-2.58,1.74a.83.83,0,0,1-.5.16Z"/><path class="cls-4" d="M11.2,12.64a.63.63,0,0,1,.29.08l3.15,1.88a.56.56,0,0,1,0,1l-2.57,1.74a.55.55,0,0,1-.32.1.57.57,0,0,1-.56-.48l-.57-3.61a.57.57,0,0,1,.56-.66m0-.65a1.22,1.22,0,0,0-.93.43,1.2,1.2,0,0,0-.27,1L10.57,17a1.22,1.22,0,0,0,1.2,1,1.2,1.2,0,0,0,.68-.22L15,16.09A1.2,1.2,0,0,0,15.56,15,1.22,1.22,0,0,0,15,14l-3.15-1.87A1.23,1.23,0,0,0,11.2,12Z"/></g></g></g></svg>