<svg xmlns="http://www.w3.org/2000/svg" width="87.846" height="60.319" viewBox="0 0 87.846 60.319">
  <path id="Pfad_1053" data-name="Pfad 1053" d="M559.936,736.474l-.163-.163-.027-.031-39.12-39.12a4.561,4.561,0,0,0-6.668,0L502.2,708.912a4.511,4.511,0,0,0,.176,6.492l24.227,24.225-24.213,24.213a4.561,4.561,0,0,0,0,6.668l11.752,11.752a4.507,4.507,0,0,0,6.492-.176l18.133-18.132,20.989-20.988A4.511,4.511,0,0,0,559.936,736.474Z" transform="translate(-695.712 561.23) rotate(-90)" fill="#00d999"/>
</svg>
